<svg width="560" height="631" viewBox="0 0 560 631" fill="none" xmlns="http://www.w3.org/2000/svg">
<path fill-rule="evenodd" clip-rule="evenodd" d="M174.568 57.0878C178.94 57.0878 218.295 12.3538 282.429 7.881C369.884 -7.77578 406.327 79.4538 406.327 79.4538C403.413 90.6372 466.087 10.1174 502.527 16.8267C541.882 25.7735 557.916 52.6131 553.543 108.531C550.628 144.319 525.848 159.976 520.019 177.869C522.933 186.815 555 215.894 555 294.178C555 372.462 522.933 414.957 524.391 414.957C525.848 414.957 556.457 493.241 533.136 540.212C509.815 587.182 444.224 542.45 434.021 533.502C423.817 537.975 417.83 622.052 289.155 631C182.996 631 138.127 569.289 123.552 560.341C106.061 578.234 34.6396 602.841 11.3186 535.739C-7.63009 450.746 21.5218 430.614 27.3526 414.957C21.5223 394.828 2.5742 361.278 5.48902 298.651C5.48902 218.128 18.6069 177.869 30.2686 164.449C24.4382 146.556 1.11679 74.981 52.1322 30.2489C136.672 -3.30108 173.112 59.326 174.571 57.0896L174.568 57.0878Z" fill="white" stroke="white" stroke-opacity="0.5" stroke-width="10" stroke-linejoin="round"/>
</svg>
