<svg width="616" height="290" viewBox="0 0 616 290" fill="none" xmlns="http://www.w3.org/2000/svg">
<g clip-path="url(#clip0_17_125)">
<path d="M342.26 260.581C321.274 257.789 307.872 254.379 291.822 247.747L283.113 244.149L268.197 248.663C259.994 251.145 248.149 253.833 241.876 254.636C183.185 262.145 125.712 240.309 110.724 204.808C108.684 199.976 107.022 197.802 105.553 198.043C104.362 198.239 97.5229 198.632 90.3542 198.916C66.6158 199.858 47.2715 195.173 30.5699 184.436C20.6232 178.042 16.3029 173.507 12.3286 165.288C6.98203 154.23 10.2644 138.685 20.0127 128.895C26.1841 122.698 40.0495 114.773 50.1705 111.66L59.5474 108.775L61.583 102.282C69.2855 77.711 105.594 59.3241 146.412 59.3241H155.876L156.911 53.251C160.967 29.4544 190.283 7.69084 229.657 -0.755839C238.655 -2.68594 243.555 -3.02759 262.243 -3.02759C280.93 -3.02759 285.83 -2.68598 294.828 -0.755839C324.575 5.62528 348.256 19.0347 360.209 36.2667C362.77 39.9591 365.687 42.7506 366.864 42.6358C368.017 42.5235 373.359 41.4526 378.736 40.2561C392.045 37.2943 415.663 36.5948 430.439 38.7248C458.984 42.8396 484.403 55.0996 496.403 70.5374C500.16 75.3718 501.487 76.2658 504.19 75.7851C511.464 74.4914 534.125 74.1566 543.293 75.2072C559.015 77.0091 575.49 82.401 588.12 89.8778C624.494 111.41 625.385 145.014 590.177 167.375C571.522 179.224 548.094 184.838 521.078 183.935L507.011 183.465L505.055 190.899C494.161 232.306 436.427 262.301 368.146 262.027C359.633 261.993 347.986 261.342 342.262 260.58L342.26 260.581Z" fill="#FBF8D8"/>
</g>
<defs>
<clipPath id="clip0_17_125">
<rect width="616" height="321" fill="white" transform="translate(0 -31)"/>
</clipPath>
</defs>
</svg>
