<svg width="328" height="224" viewBox="0 0 328 224" fill="none" xmlns="http://www.w3.org/2000/svg">
<path d="M285.892 188.58C302.153 188.58 315.338 175.399 315.338 159.137V51.7081C315.338 35.4467 302.153 22.2624 285.892 22.2624H46.2393C29.9786 22.2624 16.7981 35.4463 16.7981 51.7081V159.137C16.7981 175.399 29.9793 188.58 46.2393 188.58H285.892Z" fill="#4FFF32"/>
<path d="M285.892 188.58C302.153 188.58 315.338 175.399 315.338 159.137V51.7081C315.338 35.4467 302.153 22.2624 285.892 22.2624H46.2393C29.9786 22.2624 16.7981 35.4463 16.7981 51.7081V159.137C16.7981 175.399 29.9793 188.58 46.2393 188.58H285.892Z" stroke="black" stroke-opacity="0.5" stroke-width="9.0963" stroke-linecap="round"/>
<path d="M57.76 199.567C59.4732 200.712 60.1554 202.659 59.6717 205.014C59.1868 207.369 62.4569 207.969 63.3306 205.477C64.2035 202.985 64.4564 202.46 63.5203 201.04C65.6251 202.049 64.8673 203.627 65.4136 205.183C67.1276 206.33 69.5774 204.595 68.874 201.345C68.4026 199.175 67.0968 196.287 63.3228 196.738C64.7839 198.411 62.5429 197.012 59.9367 197.054C60.8921 199.778 61.671 199.504 57.76 199.567Z" fill="white"/>
<path d="M57.76 199.567C59.4732 200.712 60.1554 202.659 59.6717 205.014C59.1868 207.369 62.4569 207.969 63.3306 205.477C64.2035 202.985 64.4564 202.46 63.5203 201.04C65.6251 202.049 64.8673 203.627 65.4136 205.183C67.1276 206.33 69.5774 204.595 68.874 201.345C68.4026 199.175 67.0968 196.287 63.3228 196.738C64.7839 198.411 62.5429 197.012 59.9367 197.054C60.8921 199.778 61.671 199.504 57.76 199.567Z" stroke="black" stroke-width="4.5849"/>
<path d="M57.6858 198.883C59.3998 200.029 60.0839 201.975 59.5999 204.331C59.1144 206.685 62.3862 207.286 63.2591 204.795C64.132 202.302 64.384 201.777 63.4495 200.357C65.5518 201.367 64.794 202.943 65.3411 204.5C67.0543 205.647 69.5059 203.912 68.8016 200.663C68.3309 198.493 67.0253 195.605 63.2494 196.056C64.7124 197.729 62.4723 196.329 59.8634 196.371C60.8205 199.094 61.5985 198.822 57.6858 198.883Z" fill="#00DF9C"/>
<path d="M57.6858 198.883C59.3998 200.029 60.0839 201.975 59.5999 204.331C59.1144 206.685 62.3862 207.286 63.2591 204.795C64.132 202.302 64.384 201.777 63.4495 200.357C65.5518 201.367 64.794 202.943 65.3411 204.5C67.0543 205.647 69.5059 203.912 68.8016 200.663C68.3309 198.493 67.0253 195.605 63.2494 196.056C64.7124 197.729 62.4723 196.329 59.8634 196.371C60.8205 199.094 61.5985 198.822 57.6858 198.883Z" stroke="black" stroke-width="1.32"/>
<path d="M61.0397 142.144C63.9461 142.841 65.9499 144.01 66.9327 145.085C67.8256 144.293 68.7528 135.907 69.5792 132.814C70.4037 129.722 73.9775 129.137 75.0075 141.509C76.9324 142.403 76.6233 145.701 75.7646 148.692C76.9439 149.637 77.7868 151.997 77.7886 154.656C83.8053 154.582 77.4944 159.357 76.2623 161.341C76.2158 161.561 76.4451 162.34 76.6662 162.775C80.8636 162.744 82.9967 167.042 77.4364 170.634C75.9103 177.376 72.693 176.524 69.3719 182.509C68.8909 192.751 68.1277 198.28 58.7873 204.641C57.2735 205.672 54.0605 206.487 53.4986 207.485C50.03 213.652 46.075 210.798 44.6041 211.313C40.0031 212.929 39.7985 210.214 38.3742 209.659C36.5617 208.951 31.6392 206.771 29.5765 205.122C24.4808 206.297 17.9531 217.18 17.1373 221.206C16.0379 226.635 13.3509 223.016 12.3955 219.9C11.1055 215.689 10.1379 212.652 10.1976 212.614C6.74138 214.786 4.21762 215.019 7.65382 209.246C9.02542 206.943 9.08776 207.474 4.56111 207.116C-2.3803 206.566 -0.455388 202.922 4.08079 201.48C8.61713 200.036 21.741 190.963 20.9158 189.519C15.9695 189.314 16.7949 182.509 17.0013 179.416C8.13584 175.705 10.7484 168.419 12.8084 166.977C3.11867 159.416 3.87466 152.541 7.92971 152.335C9.68766 152.246 9.30394 150.204 9.30394 150.204C5.66161 143.468 6.96811 137.007 9.09846 136.526C11.9839 137.763 26.2776 152.403 31.0194 158.385C34.6433 162.953 35.7621 170.001 36.1746 174.744C36.7928 174.124 36.4496 173.643 38.3059 173.024C35.0482 169.037 31.7158 155.501 42.9115 146.939C43.7704 144.19 46.38 139.189 48.4427 138.159C48.2706 140.049 49.1293 141.252 49.1293 142.111C50.5046 140.22 53.4251 137.472 56.6906 136.956C55.4869 138.674 55.1425 140.736 54.9723 141.423C57.5494 140.393 61.501 139.189 62.7039 139.533C61.673 140.393 60.8687 141.542 61.04 142.143" fill="black"/>
<path d="M59.9675 143.947C67.2425 144.982 70.5504 151.434 70.2651 156.132C69.7488 156.304 68.8892 157.402 67.3428 158.95C64.0727 162.219 67.3428 161.011 69.7479 158.606C72.1529 156.201 74.9033 155.513 76.9649 156.2C77.2301 156.902 76.2932 158.428 74.0628 161.751C74.2341 162.225 74.8592 163.933 75.0744 164.277C79.456 164.104 79.8004 167.37 75.3335 168.615C71.4462 169.699 71.252 168.568 70.8658 170.376C70.3485 172.782 73.8555 171.845 74.4571 171.416C73.0056 177.102 68.0997 176.924 66.9993 183.247C67.2751 187.303 66.5533 198.042 54.7314 204.433C44.6692 209.872 38.649 208.764 32.324 204.296C27.5586 200.928 23.3884 191.168 23.3884 189.518C23.3884 187.868 22.9775 187.869 22.9775 187.869C16.7939 187.869 19.266 180.034 20.7102 177.971C9.37233 175.497 14.8692 167.662 17.1365 166.425C13.7014 165.394 11.3629 162.713 9.30287 159.414C5.27322 152.961 12.4632 154.052 14.1121 154.052C8.13484 146.629 9.44157 140.511 11.0212 141.474C13.2472 142.828 31.3895 161.317 32.1878 164.776C32.8068 167.457 35.0056 176.186 35.4859 178.455C36.9296 176.186 38.8297 175.242 40.7783 176.116C41.8539 176.599 44.6445 178.147 45.3838 176.77C45.8001 176.933 42.7214 175.38 41.4666 174.467C33.8211 164.613 37.077 153.514 44.5654 148.153C45.0801 146.607 45.5201 145.03 47.5816 142.453C47.7538 144.344 48.2693 146.062 48.2693 146.062C50.5033 143.656 52.3929 140.219 53.9393 139.532C53.2525 141.938 52.5649 143.313 52.5649 144.516C54.6267 142.453 58.2348 141.767 59.0944 141.594C58.0635 142.797 56.1874 143.774 59.9675 143.947Z" fill="#00DF9C"/>
<path d="M4.83609 202.455C4.83609 202.455 4.01067 203.691 8.54788 203.897C13.0824 204.104 16.587 198.948 20.504 197.712C19.0606 198.948 13.4942 203.897 11.6406 205.34C9.78695 206.783 8.75334 209.258 10.4025 208.64C12.0516 208.022 12.2588 208.433 13.4943 206.784C14.7298 205.135 21.1215 199.567 22.3586 199.155C24.9307 198.298 20.7104 200.598 18.2368 203.485C15.7622 206.371 13.4941 209.466 13.4941 210.908C13.4941 212.351 14.1122 216.887 15.144 217.094C16.7281 212.743 22.607 204.209 26.8956 200.598C25.451 198.742 22.5656 194.001 21.5338 192.557C18.7178 195.375 14.1122 198.742 10.4022 200.392C7.52037 201.673 6.07335 202.041 4.83609 202.455Z" fill="#00DF9C"/>
<path d="M75.5574 152.966C75.5574 149.048 74.7329 148.429 73.082 147.606C75.4889 142.656 72.8615 141.059 72.8424 140.836C72.3146 134.736 71.2275 132.552 70.8138 134.408C70.453 136.032 69.7153 143.653 69.0962 145.096C69.2236 145.274 71.8324 147.278 72.1215 153.722C73.4956 153.121 75.042 152.881 75.5574 152.966Z" fill="#00DF9C"/>
<path d="M55.7233 174.551C56.7331 174.824 63.1995 175.014 63.6307 167.939C61.4601 172.801 54.2622 174.521 53.4914 173.354C52.9581 172.549 52.3989 174.211 55.7233 174.551Z" fill="black"/>
<path d="M71.4662 160.975C71.332 161.21 68.4466 164.1 68.8031 164.24C69.8585 164.65 73.9821 165.117 73.5571 163.911C72.7721 161.688 71.404 160.617 71.6587 159.832C71.7702 159.486 72.1865 158.771 72.7168 158.778C73.948 158.794 75.4653 163.602 75.5899 163.638C77.9958 164.326 75.9596 165.711 73.0117 166.043C70.5671 166.318 66.664 164.492 65.2801 165.184C64.7647 165.442 63.906 166.214 64.4214 164.669C65.1089 162.606 65.2802 162.091 66.1389 160.888C66.225 161.576 66.3111 162.606 66.4839 163.638C67.5139 163.122 72.4971 156.421 76.7921 154.702C77.8088 155.041 72.3409 159.662 71.4662 160.975Z" fill="black"/>
<path d="M40.125 200.409C41.362 202.058 42.3929 203.778 41.1559 205.839C39.9189 207.899 42.8048 209.55 44.4547 207.489C46.1047 205.427 46.5175 205.014 46.1038 203.364C47.7538 205.014 47.5475 205.564 46.5175 207.9C47.7538 209.55 50.0027 208.582 51.0529 205.427C52.0152 202.535 50.022 199.378 48.3729 198.553C47.1356 198.553 45.8291 197.523 44.3855 197.728C45.0729 199.584 42.4615 199.928 40.125 200.409Z" fill="#00DF9C"/>
<path d="M40.125 200.409C41.362 202.058 42.3929 203.778 41.1559 205.839C39.9189 207.899 42.8048 209.55 44.4547 207.489C46.1047 205.427 46.5175 205.014 46.1038 203.364C47.7538 205.014 47.5475 205.564 46.5175 207.9C47.7538 209.55 50.0027 208.582 51.0529 205.427C52.0152 202.535 50.022 199.378 48.3729 198.553C47.1356 198.553 45.8291 197.523 44.3855 197.728C45.0729 199.584 42.4615 199.928 40.125 200.409Z" stroke="black" stroke-width="1.32"/>
<path d="M59.1827 148.834C60.0151 149.298 61.3841 149.73 62.17 150.916C61.5956 149.238 60.3523 148.433 57.3886 147.352C59.1625 149.691 54.708 147.334 52.7812 148.718C56.4078 148.284 59.9238 151.193 59.0528 150.19C57.6055 148.521 58.8588 148.753 59.1827 148.834Z" fill="black"/>
<path d="M54.6323 164.27C55.9889 162.985 57.5238 163.095 57.5238 163.095C59.1403 162.999 59.6225 163.083 60.8281 162.642C62.2137 162.137 62.8469 161.211 62.8469 161.211C60.764 156.605 56.1899 153.438 54.7543 157.8C54.5048 158.65 54.2196 159.942 54.9378 161.872C55.2206 161.518 55.081 160.116 55.188 158.753C55.5674 156.691 56.7941 156.112 58.3765 157.398C57.3271 158.334 56.7784 159.847 57.9392 162.233C55.4822 162.555 54.4127 163.668 54.6323 164.27Z" fill="black"/>
<path d="M54.6323 164.27C55.9889 162.985 57.5238 163.095 57.5238 163.095C59.1403 162.999 59.6225 163.083 60.8281 162.642C62.2137 162.137 62.8469 161.211 62.8469 161.211C60.764 156.605 56.1899 153.438 54.7543 157.8C54.5048 158.65 54.2196 159.942 54.9378 161.872C55.2206 161.518 55.081 160.116 55.188 158.753C55.5674 156.691 56.7941 156.112 58.3765 157.398C57.3271 158.334 56.7784 159.847 57.9392 162.233C55.4822 162.555 54.4127 163.668 54.6323 164.27Z" stroke="black" stroke-width="0.36624"/>
<path d="M59.0739 158.299C59.5927 158.425 59.7885 158.746 59.9441 159.241C59.2767 159.354 58.8226 159.336 58.8226 159.336C58.7102 158.668 59.0739 158.299 59.0739 158.299Z" fill="white"/>
<path d="M52.0323 150.794C52.6752 150.257 53.6209 149.267 55.2498 148.756C52.7797 149.16 51.6715 149.696 49.6825 151.732C52.6761 150.99 48.389 153.254 49.009 156.549C50.0689 152.365 53.5013 151.184 52.8359 151.332C50.6792 151.81 51.4582 151.274 52.0323 150.794Z" fill="black"/>
<path d="M260.054 20.6526C257.345 22.9646 255.878 29.1492 255.961 31.6325C250.541 32.6966 252.386 28.0769 247.448 28.056C242.226 28.8567 238.078 32.067 243.523 32.9066C235.046 33.4686 230.253 36.6272 234.637 40.0568C234.637 40.0568 232.679 41.7131 230.923 44.5019C228.83 47.8273 231.786 48.5736 233.688 48.6325C236.161 48.7105 238.105 47.7632 241.185 46.5091C246.36 44.3965 251.393 50.6275 258.582 49.5694C259.227 49.4737 261.01 51.0886 261.01 51.0886C261.558 53.3743 263.399 61.1022 269.095 65.7211C281.74 75.9809 292.445 70.9853 296.601 68.0077C296.561 69.2449 296.857 72.6238 297.606 75.1231C298.141 77.8213 303.113 77.1505 304.433 74.5091C307.679 76.261 310.66 73.2589 311.869 67.5185C317.165 69.7471 318.251 61.3228 318.159 57.6067C322.99 54.8678 326.672 49.2059 322.808 47.4357C326.04 42.9976 322.792 41.2458 320.944 40.9832C325.026 35.7464 320.151 33.3263 317.484 32.8302C318.572 31.0089 318.624 29.3591 311.835 28.7355C312.263 23.2097 322.446 7.33968 324.79 4.93641C327.135 2.53314 329.826 1.14301 324.233 1.47571C317.415 1.88326 315.174 7.5901 315.005 6.34654C314.839 5.1041 313.42 4.23483 312.57 5.03397C311.721 5.83311 310.658 6.83053 310.125 4.133C309.587 1.43458 305.164 -2.21045 306.072 1.7376C306.98 5.68565 301.324 21.8083 299.193 24.0113C297.06 26.2127 296.644 25.1573 294.311 21.7968C287.6 12.1359 281.266 10.3263 272.278 10.9197C270.968 11.0058 252.467 9.46915 262.039 14.8606C252.072 17.0094 253.87 19.7069 260.054 20.6526Z" fill="black"/>
<path d="M267.074 15.434C260.286 16.9366 254.29 18.7313 263.327 19.2196C260.472 22.5213 258.766 26.7774 258.348 30.5822C257.442 35.1518 259.816 38.2621 259.391 39.0331C257.826 41.8606 255.587 47.8421 268.263 51.9999C276.738 54.7799 288.549 50.7417 293.236 36.4102C293.047 45.2579 289.142 48.5428 282.835 52.489C282.801 53.5199 284.538 60.7046 295.09 59.7957C294.767 55.8978 295.56 49.1356 292.73 46.0903C292.962 45.272 293.876 42.412 295.281 43.694C296.39 44.7055 298.246 49.1057 297.487 56.5326C297.426 57.0798 299.696 63.1317 299.537 72.7072C299.519 73.7372 302.958 74.9648 303.943 70.3671C304.907 65.8591 304.79 62.9691 304.88 60.0819C304.977 56.9779 306.191 55.9637 306.483 61.5756C306.611 64.0562 306.056 68.783 305.752 71.8678C309.248 72.183 310.851 67.0761 310.74 57.3774C311.377 56.7776 311.853 61.3297 311.99 63.604C312.476 63.8665 316.369 66.1057 315.951 55.6809C315.63 47.778 312.818 41.8165 311.489 39.8646C309.911 37.5463 311.817 35.9552 313.737 40.5529C315.659 45.1509 317.983 49.968 317.824 55.1198C320.117 54.3665 325.044 48.5367 319.91 47.7587C319.734 46.7226 326.2 44.4466 317.615 41.9123C318.273 40.6934 321.641 38.7433 319.642 36.4057C317.747 34.1877 313.917 34.7829 312.635 36.1872C311.213 35.5232 311.237 34.6995 312.287 34.1131C313.337 33.5266 316.279 31.7615 314.445 31.0853C312.609 30.4091 307.27 29.625 302.677 31.3391C301.652 31.1013 301.499 29.4468 303.99 28.9041C306.483 28.3624 307.926 28.408 308.951 28.647C309.47 25.1555 319.134 6.26852 323.545 3.72363C322.122 3.05981 318.154 4.58774 315.34 8.83252C312.528 13.0764 308.929 22.6634 305.979 24.6348C305.04 21.7161 309.482 11.5388 309.758 9.27851C310.035 7.01821 309.081 4.51311 308.061 4.06892C307.766 6.94717 303.212 27.436 295.922 29.6857C294.904 29.2413 294.497 29.0226 293.942 26.9426C293.389 24.8632 287.56 13.6665 275.996 13.5946C272.523 13.5725 258.941 11.3614 267.074 15.434Z" fill="#FCE700"/>
<path d="M307.764 20.3584C309.509 17.3158 312.159 11.6222 313.042 9.79307C313.957 6.93324 312.721 6.89457 311.419 8.91682C310.518 11.365 308.483 17.078 307.764 20.3584Z" fill="white"/>
<path d="M255.752 34.4222C255.886 35.4425 256.385 37.1626 257.269 38.3235C257.482 38.6044 253.542 42.3585 258.123 46.619C258.618 47.0801 258.485 46.7806 256.804 47.0387C253.106 47.6059 248.686 44.097 245.793 43.371C244.339 43.0057 240.893 43.1707 238.099 44.8539C235.864 46.2 232.971 45.4941 234.646 43.658C235.34 42.8967 237.309 39.9716 239.789 39.8408C239.616 38.8056 237.977 39.2429 236.934 39.0972C235.223 38.8582 236.051 34.905 244.768 34.437C246.553 34.3406 246.171 34.02 246.607 33.2087C245.377 32.9646 243.86 31.8186 244.872 31.1705C249.017 28.5231 247.756 32.6791 252.393 33.7565C253.416 33.9946 254.927 34.3959 255.752 34.4222Z" fill="#FCE700"/>
<path d="M282.983 38.5536C281.173 38.0908 279.885 38.9346 279.885 38.9346C278.429 39.638 278.049 39.9462 276.779 40.1474C275.322 40.381 274.319 39.8794 274.319 39.8794C273.899 34.8427 276.352 29.8489 279.73 32.961C280.36 33.5819 281.239 34.5714 281.551 36.6087C281.133 36.4356 280.571 35.143 279.816 34.0049C278.478 32.3893 277.125 32.4797 276.37 34.3729C277.741 34.6793 278.959 35.734 279.103 38.385C281.407 37.4692 282.884 37.9204 282.983 38.5536Z" fill="black"/>
<path d="M276.203 35.4982C275.814 35.8608 275.796 36.2376 275.904 36.7452C276.54 36.5186 276.929 36.2823 276.929 36.2823C276.705 35.6448 276.203 35.4982 276.203 35.4982Z" fill="white"/>
<path d="M266.204 39.2202C265.739 39.0646 263.612 39.0156 263.612 39.0156C262.264 38.2857 260.737 38.3947 259.463 38.8908C256.812 39.9244 260.513 37.4771 260.513 37.4771C260.506 36.4882 260.517 35.2712 261.376 33.7224C262.994 30.8203 265.836 31.1687 266.834 35.0385C267.007 36.0431 267.169 37.9363 266.721 38.6247C266.485 38.2902 266.465 37.5753 266.301 35.7455C265.887 33.3306 263.943 31.8984 262.992 33.5801C264.015 33.7293 264.73 35.2818 264.541 38.4552C266.739 38.8636 266.173 38.8751 266.204 39.2202Z" fill="black"/>
<path d="M262.369 34.6418C261.935 34.9542 261.875 35.3265 261.917 35.8428C262.578 35.6963 262.99 35.5093 262.99 35.5093C262.846 34.8472 262.369 34.6418 262.369 34.6418Z" fill="white"/>
<path d="M286.589 44.1454C286.155 45.0962 281.574 50.2604 277.132 45.1446C282.922 47.0387 286.182 44.5871 286.514 42.0809C286.643 41.1237 287.169 42.0959 286.589 44.1454Z" fill="black"/>
<path d="M264.986 53.131C269.437 55.1789 273.18 56.2159 279.968 54.0945C281.342 57.187 285.467 62.8911 295.09 62.5488C295.913 64.1284 295.708 65.4342 295.708 65.4342C291.242 68.1843 282.374 71.1393 274.814 66.6715C268.414 62.8896 265.671 58.9732 264.986 53.131Z" fill="#FCE700"/>
<path d="M268.76 40.3378C263.48 36.4356 261.041 39.942 259.924 41.8929C258.013 45.2343 258.238 48.2539 258.521 48.8186C259.249 49.1338 262.203 48.7685 264.824 47.5832C265.582 50.8391 266.515 52.1325 271.39 49.2066C275.821 46.5478 274.904 45.1693 274.904 45.1693C274.796 44.3016 274.645 41.1669 274.113 43.204C273.2 46.6883 272.647 47.2212 269.803 48.3717C271.235 46.5698 270.664 45.0322 271.647 43.3991C272.233 42.4217 271.082 42.2697 270.691 42.2495C266.838 42.0325 270.257 43.6888 259.735 47.2968C259.939 45.7023 260.434 42.6948 262.448 41.2424C264.615 39.681 268.533 40.9131 269.259 41.2282C269.248 40.7182 269.214 40.5988 268.76 40.3378Z" fill="black"/>
<path d="M266.784 46.8436C266.234 47.1868 267.146 49.5813 267.96 48.3337C268.774 47.0861 268.677 45.7221 268.677 45.7221C267.962 45.9181 267.112 46.6345 266.784 46.8436Z" fill="white"/>
<path d="M261.344 42.2915C260.45 43.598 259.42 47.4467 259.557 47.7207C261.756 47.1026 269.729 43.5288 270.554 42.1544C271.157 41.1509 263.75 38.3048 261.344 42.2915Z" fill="#FCE700"/>
<path d="M38.1571 109.479C38.1571 108.532 38.3498 107.62 38.7352 106.745C38.9123 106.745 39.1883 106.782 39.5633 106.854C39.9383 106.917 40.3342 107 40.7508 107.104C40.6987 104.865 40.6727 102.677 40.6727 100.542C40.6727 98.2399 40.7144 96.2764 40.7977 94.6514H40.7821L40.7977 94.4639L38.2508 94.1357C38.0946 93.5003 37.9904 92.9743 37.9383 92.5576C37.8862 92.1305 37.8654 91.641 37.8758 91.0889C38.2092 90.7139 38.6987 90.3857 39.3446 90.1045C40.0008 89.8128 40.7039 89.5941 41.4539 89.4482C42.2144 89.292 42.9071 89.2139 43.5321 89.2139C44.73 89.2139 45.6623 89.4535 46.3289 89.9326C47.006 90.4014 47.3914 91.1514 47.4852 92.1826C47.5164 92.5889 47.5321 93.0316 47.5321 93.5107C47.5321 95.0941 47.3914 96.9691 47.1102 99.1357C46.8289 101.302 46.4539 103.834 45.9852 106.729L45.8602 107.542L49.8446 107.761L51.4696 102.573C51.9592 102.552 52.5164 102.589 53.1414 102.683C53.7769 102.776 54.3237 102.907 54.7821 103.073C54.9696 103.563 55.1414 104.344 55.2977 105.417C55.4644 106.479 55.5477 107.521 55.5477 108.542C55.5477 110.24 55.2977 111.433 54.7977 112.12C54.5477 112.453 54.1987 112.745 53.7508 112.995C53.3133 113.235 52.8498 113.417 52.3602 113.542C51.881 113.677 51.4487 113.745 51.0633 113.745C50.4487 113.745 49.73 113.615 48.9071 113.354C48.0842 113.084 47.2769 112.745 46.4852 112.339C45.6935 111.922 45.0425 111.506 44.5321 111.089C44.0633 111.901 43.5217 112.532 42.9071 112.979C42.2925 113.427 41.5269 113.683 40.6102 113.745C40.1623 113.672 39.7508 113.438 39.3758 113.042C39.0008 112.646 38.7039 112.136 38.4852 111.511C38.2664 110.886 38.1571 110.209 38.1571 109.479ZM62.4052 104.354C62.4052 102.552 62.7073 100.943 63.3114 99.5264C63.9156 98.1097 64.8479 96.9899 66.1083 96.167C67.3792 95.3337 68.9625 94.917 70.8583 94.917C71.8479 94.917 72.8375 95.0368 73.8271 95.2764C74.8167 95.5055 75.6552 95.891 76.3427 96.4326C76.9781 96.943 77.4364 97.6201 77.7177 98.4639C78.0094 99.2972 78.1552 100.224 78.1552 101.245C78.1552 101.922 78.0979 102.615 77.9833 103.323C77.8583 103.532 77.6135 103.808 77.2489 104.151C76.8844 104.485 76.4573 104.813 75.9677 105.136C75.4781 105.459 75.0042 105.709 74.5458 105.886C74.1083 105.917 73.6552 105.933 73.1864 105.933C72.3635 105.933 71.5302 105.896 70.6864 105.823C69.8427 105.75 69.1031 105.667 68.4677 105.573C68.551 106.459 68.8219 107.229 69.2802 107.886C69.7385 108.542 70.4677 108.87 71.4677 108.87C71.5614 108.87 71.7125 108.86 71.9208 108.839C72.5562 108.776 73.2958 108.61 74.1396 108.339C74.9937 108.058 75.8427 107.735 76.6864 107.37C77.0823 107.766 77.3739 108.162 77.5614 108.558C77.7489 108.953 77.8792 109.521 77.9521 110.261C77.6292 110.636 77.1031 111.094 76.3739 111.636C75.6552 112.177 74.775 112.667 73.7333 113.104C72.6917 113.532 71.6031 113.745 70.4677 113.745C68.7594 113.745 67.2958 113.334 66.0771 112.511C64.8687 111.677 63.9521 110.552 63.3271 109.136C62.7125 107.709 62.4052 106.115 62.4052 104.354ZM72.4677 100.761C72.3219 100.604 72.0771 100.485 71.7333 100.401C71.3896 100.308 71.0302 100.261 70.6552 100.261C70.3531 100.261 70.0458 100.287 69.7333 100.339C69.4312 100.391 69.2489 100.448 69.1864 100.511C68.8323 101.209 68.6083 102 68.5146 102.886L72.6864 102.479L72.4677 100.761ZM91.1689 103.136C91.7835 103.136 92.4606 103.198 93.2002 103.323C93.9502 103.448 94.6377 103.599 95.2627 103.776V103.292C95.2627 102.969 95.2523 102.61 95.2314 102.214C95.221 101.818 95.2002 101.558 95.1689 101.433C95.0752 101.256 94.8044 101.073 94.3564 100.886C93.9189 100.698 93.2002 100.604 92.2002 100.604C91.5856 100.604 90.9502 100.683 90.2939 100.839C89.6481 100.985 88.9294 101.183 88.1377 101.433C87.7106 100.724 87.3669 100.052 87.1064 99.417C86.8564 98.7712 86.7314 98.1253 86.7314 97.4795C86.7314 97.2816 86.7471 97.0837 86.7783 96.8857C88.4658 95.5732 90.6481 94.917 93.3252 94.917C94.8044 94.917 96.1169 95.0837 97.2627 95.417C98.4085 95.7503 99.3512 96.3962 100.091 97.3545C100.83 98.3128 101.2 99.6722 101.2 101.433C101.2 103.151 100.997 104.818 100.591 106.433C100.195 108.037 99.9919 108.854 99.9814 108.886L102.247 107.917C102.549 108.24 102.815 108.636 103.044 109.104C103.284 109.563 103.435 110.094 103.497 110.698C103.351 111.011 103.034 111.412 102.544 111.901C102.054 112.381 101.455 112.808 100.747 113.183C100.039 113.558 99.2992 113.745 98.5283 113.745C97.6637 113.745 97.0075 113.49 96.5596 112.979C96.1221 112.469 95.9033 111.808 95.9033 110.995C95.9033 110.537 95.971 110.073 96.1064 109.604L95.6377 109.464C95.346 111.11 94.7262 112.235 93.7783 112.839C92.8304 113.443 91.7835 113.745 90.6377 113.745C89.8877 113.745 89.1637 113.537 88.4658 113.12C87.7679 112.693 87.2002 112.078 86.7627 111.276C86.3252 110.464 86.1064 109.516 86.1064 108.433C86.1064 106.703 86.5387 105.391 87.4033 104.495C88.2679 103.589 89.5231 103.136 91.1689 103.136ZM92.9502 109.089C93.2106 109.037 93.5179 108.891 93.8721 108.651C94.2367 108.412 94.5596 108.125 94.8408 107.792C95.1221 107.459 95.2887 107.141 95.3408 106.839L95.2471 106.464C94.695 106.391 94.1064 106.354 93.4814 106.354C92.9502 106.354 92.5856 106.396 92.3877 106.479C92.0544 106.854 91.8877 107.271 91.8877 107.729C91.8877 108.063 91.971 108.365 92.1377 108.636C92.3148 108.907 92.5856 109.058 92.9502 109.089ZM110.261 104.417C110.261 102.834 110.48 101.318 110.917 99.8701C111.365 98.4222 112.063 97.2347 113.011 96.3076C113.969 95.3805 115.172 94.917 116.62 94.917C118.245 94.917 119.797 95.4326 121.276 96.4639L121.526 96.3076C121.495 95.0889 121.344 93.9847 121.073 92.9951L117.901 92.792C117.756 92.6045 117.641 92.3285 117.558 91.9639C117.474 91.5889 117.433 91.2035 117.433 90.8076C117.433 90.2764 117.495 89.818 117.62 89.4326C118.245 88.9847 119.047 88.6462 120.026 88.417C121.006 88.1878 121.985 88.0732 122.964 88.0732C124.047 88.0732 124.865 88.3024 125.417 88.7607C125.969 89.2087 126.339 89.891 126.526 90.8076C126.724 91.7139 126.823 92.9743 126.823 94.5889C126.823 96.7139 126.735 99.1253 126.558 101.823C126.381 104.521 126.151 106.724 125.87 108.433L125.808 108.698L127.62 107.917C127.922 108.24 128.188 108.636 128.417 109.104C128.657 109.563 128.808 110.094 128.87 110.698C128.724 111.011 128.407 111.412 127.917 111.901C127.427 112.381 126.829 112.808 126.12 113.183C125.412 113.558 124.672 113.745 123.901 113.745C123.037 113.745 122.37 113.49 121.901 112.979C121.443 112.459 121.214 111.797 121.214 110.995C121.214 110.787 121.266 110.36 121.37 109.714C121.485 109.068 121.579 108.62 121.651 108.37L121.183 108.229C120.651 110.094 119.948 111.479 119.073 112.386C118.198 113.292 117.115 113.745 115.823 113.745C114.438 113.745 113.329 113.287 112.495 112.37C111.672 111.443 111.094 110.282 110.761 108.886C110.427 107.49 110.261 106 110.261 104.417ZM120.98 104.136C121.042 103.761 121.073 103.323 121.073 102.823C121.073 102.5 121.058 102.193 121.026 101.901C121.006 101.61 120.98 101.401 120.948 101.276C120.532 100.974 120.058 100.761 119.526 100.636C119.006 100.511 118.526 100.448 118.089 100.448C117.818 100.448 117.526 100.474 117.214 100.526C117.006 100.735 116.839 101.188 116.714 101.886C116.589 102.573 116.526 103.349 116.526 104.214C116.526 105.141 116.589 106.042 116.714 106.917C116.849 107.782 117.037 108.459 117.276 108.948C117.443 108.948 117.766 108.693 118.245 108.183C118.735 107.662 119.24 107.026 119.761 106.276C120.282 105.516 120.688 104.802 120.98 104.136ZM135.853 104.354C135.853 102.552 136.155 100.943 136.759 99.5264C137.363 98.1097 138.295 96.9899 139.556 96.167C140.827 95.3337 142.41 94.917 144.306 94.917C145.295 94.917 146.285 95.0368 147.275 95.2764C148.264 95.5055 149.103 95.891 149.79 96.4326C150.426 96.943 150.884 97.6201 151.165 98.4639C151.457 99.2972 151.603 100.224 151.603 101.245C151.603 101.922 151.545 102.615 151.431 103.323C151.306 103.532 151.061 103.808 150.696 104.151C150.332 104.485 149.905 104.813 149.415 105.136C148.926 105.459 148.452 105.709 147.993 105.886C147.556 105.917 147.103 105.933 146.634 105.933C145.811 105.933 144.978 105.896 144.134 105.823C143.29 105.75 142.551 105.667 141.915 105.573C141.999 106.459 142.269 107.229 142.728 107.886C143.186 108.542 143.915 108.87 144.915 108.87C145.009 108.87 145.16 108.86 145.368 108.839C146.004 108.776 146.743 108.61 147.587 108.339C148.441 108.058 149.29 107.735 150.134 107.37C150.53 107.766 150.821 108.162 151.009 108.558C151.196 108.953 151.327 109.521 151.4 110.261C151.077 110.636 150.551 111.094 149.821 111.636C149.103 112.177 148.222 112.667 147.181 113.104C146.139 113.532 145.051 113.745 143.915 113.745C142.207 113.745 140.743 113.334 139.525 112.511C138.316 111.677 137.4 110.552 136.775 109.136C136.16 107.709 135.853 106.115 135.853 104.354ZM145.915 100.761C145.769 100.604 145.525 100.485 145.181 100.401C144.837 100.308 144.478 100.261 144.103 100.261C143.801 100.261 143.493 100.287 143.181 100.339C142.879 100.391 142.696 100.448 142.634 100.511C142.28 101.209 142.056 102 141.962 102.886L146.134 102.479L145.915 100.761ZM161.179 109.245C161.179 108.797 161.189 107.698 161.21 105.948C161.241 102.511 161.257 100.631 161.257 100.308L159.82 100.073C159.622 99.4795 159.481 98.9222 159.398 98.4014C159.314 97.8805 159.273 97.3545 159.273 96.8232C159.273 96.6045 159.278 96.4378 159.288 96.3232C159.465 96.167 159.741 95.9795 160.116 95.7607C160.491 95.542 160.934 95.3493 161.445 95.1826C161.955 95.0055 162.476 94.917 163.007 94.917C164.247 94.917 165.142 95.193 165.695 95.7451C166.257 96.2972 166.538 97.1045 166.538 98.167C166.538 98.8128 166.455 99.641 166.288 100.651C166.132 101.651 165.971 102.365 165.804 102.792L166.366 102.886L167.304 99.3545C167.721 97.7607 168.241 96.6253 168.866 95.9482C169.491 95.2607 170.195 94.917 170.976 94.917C171.486 94.917 171.991 94.9951 172.491 95.1514C173.002 95.3076 173.392 95.5003 173.663 95.7295C173.955 96.3753 174.101 97.2347 174.101 98.3076C174.101 99.0576 174.028 99.8024 173.882 100.542C173.736 101.271 173.549 101.86 173.32 102.308L170.038 101.87C169.372 102.578 168.663 103.563 167.913 104.823C167.163 106.073 166.564 107.224 166.116 108.276L166.101 109.089L169.132 108.37C169.642 109.151 169.939 110.078 170.023 111.151C170.023 111.214 169.788 111.469 169.32 111.917C168.851 112.365 168.231 112.782 167.46 113.167C166.7 113.542 165.825 113.729 164.835 113.729C163.814 113.729 162.96 113.459 162.273 112.917C161.596 112.365 161.236 111.438 161.195 110.136C161.184 109.979 161.179 109.683 161.179 109.245ZM182.599 101.87C182.599 98.7139 182.646 96.292 182.74 94.6045H182.724L180.333 94.2764C180.198 93.891 180.094 93.4691 180.021 93.0107C179.948 92.542 179.911 92.0889 179.911 91.6514C179.911 91.318 179.937 90.9535 179.99 90.5576C181.26 90.1305 182.922 89.8024 184.974 89.5732C187.026 89.3337 188.984 89.2139 190.849 89.2139C192.443 89.2139 193.812 89.3389 194.958 89.5889C196.104 89.8285 197.062 90.3805 197.833 91.2451C198.615 92.0993 199.005 93.3753 199.005 95.0732C199.005 95.7399 198.823 96.4951 198.458 97.3389C198.094 98.1722 197.615 98.9587 197.021 99.6982C196.437 100.427 195.828 100.99 195.193 101.386C195.984 101.521 196.719 101.797 197.396 102.214C198.083 102.62 198.641 103.177 199.068 103.886C199.495 104.584 199.708 105.412 199.708 106.37C199.708 107.651 199.464 108.756 198.974 109.683C198.484 110.61 197.786 111.375 196.88 111.979C195.109 113.157 192.609 113.745 189.38 113.745C188.109 113.745 186.979 113.719 185.99 113.667C185.01 113.625 184.104 113.542 183.271 113.417C182.823 111 182.599 107.151 182.599 101.87ZM191.49 100.886C191.76 100.125 191.99 99.1618 192.177 97.9951C192.375 96.818 192.495 95.8597 192.536 95.1201C192.484 95.0264 192.219 94.9482 191.74 94.8857C191.26 94.8128 190.641 94.7764 189.88 94.7764C189.641 94.7764 189.24 94.792 188.677 94.8232C188.594 97.167 188.469 99.2712 188.302 101.136L189.88 101.011L191.49 100.886ZM190.708 109.651C191.583 109.651 192.208 109.615 192.583 109.542C192.844 109.386 193.073 109.104 193.271 108.698C193.479 108.292 193.635 107.849 193.74 107.37C193.844 106.881 193.896 106.443 193.896 106.058C193.708 105.516 192.776 105.245 191.099 105.245C190.391 105.245 189.578 105.292 188.661 105.386C188.411 105.417 188.224 105.433 188.099 105.433L188.052 107.714C188.042 107.943 188.031 108.209 188.021 108.511C188.01 108.813 188.005 109.151 188.005 109.526C188.693 109.61 189.443 109.651 190.255 109.651H190.708ZM207.55 104.198C207.55 102.313 207.852 100.677 208.456 99.292C209.061 97.9066 209.988 96.8337 211.238 96.0732C212.488 95.3024 214.055 94.917 215.941 94.917C218.024 94.917 219.66 95.3076 220.847 96.0889C222.035 96.8597 222.863 97.9326 223.331 99.3076C223.811 100.683 224.05 102.365 224.05 104.354C224.05 106.157 223.732 107.766 223.097 109.183C222.472 110.589 221.524 111.703 220.253 112.526C218.993 113.339 217.446 113.745 215.613 113.745C212.779 113.745 210.727 112.875 209.456 111.136C208.186 109.386 207.55 107.073 207.55 104.198ZM216.253 109.167C216.785 109.167 217.107 109.125 217.222 109.042C217.462 108.625 217.644 108.037 217.769 107.276C217.894 106.516 217.956 105.693 217.956 104.808C217.956 103.995 217.904 103.235 217.8 102.526C217.696 101.808 217.55 101.245 217.363 100.839C217.248 100.703 217.019 100.604 216.675 100.542C216.331 100.469 215.956 100.433 215.55 100.433C215.019 100.433 214.654 100.49 214.456 100.604C213.936 101.5 213.675 102.745 213.675 104.339C213.675 105.089 213.732 105.854 213.847 106.636C213.962 107.417 214.107 108.125 214.285 108.761C214.41 108.896 214.665 109 215.05 109.073C215.436 109.136 215.837 109.167 216.253 109.167ZM237.095 103.136C237.71 103.136 238.387 103.198 239.126 103.323C239.876 103.448 240.564 103.599 241.189 103.776V103.292C241.189 102.969 241.179 102.61 241.158 102.214C241.147 101.818 241.126 101.558 241.095 101.433C241.001 101.256 240.731 101.073 240.283 100.886C239.845 100.698 239.126 100.604 238.126 100.604C237.512 100.604 236.876 100.683 236.22 100.839C235.574 100.985 234.856 101.183 234.064 101.433C233.637 100.724 233.293 100.052 233.033 99.417C232.783 98.7712 232.658 98.1253 232.658 97.4795C232.658 97.2816 232.673 97.0837 232.705 96.8857C234.392 95.5732 236.574 94.917 239.251 94.917C240.731 94.917 242.043 95.0837 243.189 95.417C244.335 95.7503 245.277 96.3962 246.017 97.3545C246.757 98.3128 247.126 99.6722 247.126 101.433C247.126 103.151 246.923 104.818 246.517 106.433C246.121 108.037 245.918 108.854 245.908 108.886L248.173 107.917C248.475 108.24 248.741 108.636 248.97 109.104C249.21 109.563 249.361 110.094 249.423 110.698C249.277 111.011 248.96 111.412 248.47 111.901C247.981 112.381 247.382 112.808 246.673 113.183C245.965 113.558 245.225 113.745 244.455 113.745C243.59 113.745 242.934 113.49 242.486 112.979C242.048 112.469 241.83 111.808 241.83 110.995C241.83 110.537 241.897 110.073 242.033 109.604L241.564 109.464C241.272 111.11 240.652 112.235 239.705 112.839C238.757 113.443 237.71 113.745 236.564 113.745C235.814 113.745 235.09 113.537 234.392 113.12C233.694 112.693 233.126 112.078 232.689 111.276C232.251 110.464 232.033 109.516 232.033 108.433C232.033 106.703 232.465 105.391 233.33 104.495C234.194 103.589 235.449 103.136 237.095 103.136ZM238.876 109.089C239.137 109.037 239.444 108.891 239.798 108.651C240.163 108.412 240.486 108.125 240.767 107.792C241.048 107.459 241.215 107.141 241.267 106.839L241.173 106.464C240.621 106.391 240.033 106.354 239.408 106.354C238.876 106.354 238.512 106.396 238.314 106.479C237.981 106.854 237.814 107.271 237.814 107.729C237.814 108.063 237.897 108.365 238.064 108.636C238.241 108.907 238.512 109.058 238.876 109.089ZM257.703 109.245C257.703 108.797 257.713 107.698 257.734 105.948C257.765 102.511 257.781 100.631 257.781 100.308L256.343 100.073C256.145 99.4795 256.005 98.9222 255.921 98.4014C255.838 97.8805 255.796 97.3545 255.796 96.8232C255.796 96.6045 255.802 96.4378 255.812 96.3232C255.989 96.167 256.265 95.9795 256.64 95.7607C257.015 95.542 257.458 95.3493 257.968 95.1826C258.479 95.0055 259 94.917 259.531 94.917C260.77 94.917 261.666 95.193 262.218 95.7451C262.781 96.2972 263.062 97.1045 263.062 98.167C263.062 98.8128 262.979 99.641 262.812 100.651C262.656 101.651 262.494 102.365 262.328 102.792L262.89 102.886L263.828 99.3545C264.244 97.7607 264.765 96.6253 265.39 95.9482C266.015 95.2607 266.718 94.917 267.5 94.917C268.01 94.917 268.515 94.9951 269.015 95.1514C269.526 95.3076 269.916 95.5003 270.187 95.7295C270.479 96.3753 270.625 97.2347 270.625 98.3076C270.625 99.0576 270.552 99.8024 270.406 100.542C270.26 101.271 270.072 101.86 269.843 102.308L266.562 101.87C265.895 102.578 265.187 103.563 264.437 104.823C263.687 106.073 263.088 107.224 262.64 108.276L262.625 109.089L265.656 108.37C266.166 109.151 266.463 110.078 266.546 111.151C266.546 111.214 266.312 111.469 265.843 111.917C265.375 112.365 264.755 112.782 263.984 113.167C263.224 113.542 262.349 113.729 261.359 113.729C260.338 113.729 259.484 113.459 258.796 112.917C258.119 112.365 257.76 111.438 257.718 110.136C257.708 109.979 257.703 109.683 257.703 109.245ZM277.763 104.417C277.763 102.834 277.982 101.318 278.42 99.8701C278.867 98.4222 279.565 97.2347 280.513 96.3076C281.472 95.3805 282.675 94.917 284.123 94.917C285.748 94.917 287.3 95.4326 288.779 96.4639L289.029 96.3076C288.998 95.0889 288.847 93.9847 288.576 92.9951L285.404 92.792C285.258 92.6045 285.144 92.3285 285.06 91.9639C284.977 91.5889 284.935 91.2035 284.935 90.8076C284.935 90.2764 284.998 89.818 285.123 89.4326C285.748 88.9847 286.55 88.6462 287.529 88.417C288.508 88.1878 289.487 88.0732 290.466 88.0732C291.55 88.0732 292.367 88.3024 292.92 88.7607C293.472 89.2087 293.841 89.891 294.029 90.8076C294.227 91.7139 294.326 92.9743 294.326 94.5889C294.326 96.7139 294.237 99.1253 294.06 101.823C293.883 104.521 293.654 106.724 293.373 108.433L293.31 108.698L295.123 107.917C295.425 108.24 295.69 108.636 295.92 109.104C296.159 109.563 296.31 110.094 296.373 110.698C296.227 111.011 295.909 111.412 295.42 111.901C294.93 112.381 294.331 112.808 293.623 113.183C292.914 113.558 292.175 113.745 291.404 113.745C290.539 113.745 289.873 113.49 289.404 112.979C288.946 112.459 288.716 111.797 288.716 110.995C288.716 110.787 288.769 110.36 288.873 109.714C288.987 109.068 289.081 108.62 289.154 108.37L288.685 108.229C288.154 110.094 287.451 111.479 286.576 112.386C285.701 113.292 284.617 113.745 283.326 113.745C281.94 113.745 280.831 113.287 279.998 112.37C279.175 111.443 278.597 110.282 278.263 108.886C277.93 107.49 277.763 106 277.763 104.417ZM288.482 104.136C288.545 103.761 288.576 103.323 288.576 102.823C288.576 102.5 288.56 102.193 288.529 101.901C288.508 101.61 288.482 101.401 288.451 101.276C288.034 100.974 287.56 100.761 287.029 100.636C286.508 100.511 286.029 100.448 285.591 100.448C285.321 100.448 285.029 100.474 284.716 100.526C284.508 100.735 284.341 101.188 284.216 101.886C284.091 102.573 284.029 103.349 284.029 104.214C284.029 105.141 284.091 106.042 284.216 106.917C284.352 107.782 284.539 108.459 284.779 108.948C284.946 108.948 285.269 108.693 285.748 108.183C286.237 107.662 286.742 107.026 287.263 106.276C287.784 105.516 288.19 104.802 288.482 104.136Z" fill="black"/>
</svg>
